<?xml version="1.0" encoding="UTF-8" standalone="no"?>
<!-- Created with Inkscape (http://www.inkscape.org/) -->

<svg
        id="svg2"
        viewBox="0 0 372.95897 200"
        version="1.0"
        inkscape:version="1.1.2 (0a00cf5339, 2022-02-04)"
        sodipodi:docname="lemmling-Cartoon-sheep.svg"
        width="372.95898"
        height="200"
        xmlns:inkscape="http://www.inkscape.org/namespaces/inkscape"
        xmlns:sodipodi="http://sodipodi.sourceforge.net/DTD/sodipodi-0.dtd"
        xmlns="http://www.w3.org/2000/svg"
        xmlns:svg="http://www.w3.org/2000/svg"
        xmlns:rdf="http://www.w3.org/1999/02/22-rdf-syntax-ns#"
        xmlns:cc="http://creativecommons.org/ns#"
        xmlns:dc="http://purl.org/dc/elements/1.1/">
    <defs
            id="defs24">
        <inkscape:path-effect
                effect="lattice2"
                gridpoint0="203.11202,682.56882"
                gridpoint1="470.77477,682.56882"
                gridpoint2="203.11202,730.76505"
                gridpoint3="470.77477,730.76505"
                gridpoint4="270.37794,666.52728"
                gridpoint5="399.4569,700.35295"
                gridpoint6="270.62214,706.71628"
                gridpoint7="394.12442,752.25596"
                gridpoint8x9="336.9434,682.56882"
                gridpoint10x11="336.9434,730.76505"
                gridpoint12="203.11202,694.61788"
                gridpoint13="470.77477,694.61788"
                gridpoint14="203.11202,718.71599"
                gridpoint15="470.77477,718.71599"
                gridpoint16="268.84072,692.94714"
                gridpoint17="398.37389,710.74578"
                gridpoint18="270.02771,718.71599"
                gridpoint19="392.94188,742.22595"
                gridpoint20x21="342.99233,681.43312"
                gridpoint22x23="336.9434,718.71599"
                gridpoint24x26="203.11202,706.66693"
                gridpoint25x27="470.77477,706.66693"
                gridpoint28x30="270.02771,706.66693"
                gridpoint29x31="396.15878,721.85725"
                gridpoint32x33x34x35="342.26972,697.94282"
                id="path-effect10324"
                is_visible="true"
                lpeversion="1"
                horizontal_mirror="false"
                vertical_mirror="false"
                perimetral="false"
                live_update="true" />
        <inkscape:path-effect
                effect="bend_path"
                id="path-effect10322"
                is_visible="true"
                lpeversion="1"
                bendpath="M 203.11202,706.66693 H 470.77477"
                prop_scale="1"
                scale_y_rel="false"
                vertical="false"
                hide_knot="false" />
    </defs>
    <sodipodi:namedview
            id="namedview22"
            pagecolor="#ffffff"
            bordercolor="#666666"
            borderopacity="1.0"
            inkscape:pageshadow="2"
            inkscape:pageopacity="0.0"
            inkscape:pagecheckerboard="0"
            showgrid="false"
            inkscape:zoom="1.5225361"
            inkscape:cx="62.724291"
            inkscape:cy="157.63173"
            inkscape:window-width="1920"
            inkscape:window-height="1163"
            inkscape:window-x="4176"
            inkscape:window-y="0"
            inkscape:window-maximized="1"
            inkscape:current-layer="layer1"
            fit-margin-top="0"
            fit-margin-left="0"
            fit-margin-right="0"
            fit-margin-bottom="0" />
    <g
            id="layer1"
            transform="translate(-100.35103,-428.63)">
        <path
                id="path2383"
                style="fill:#ffffff;stroke:#000000;stroke-width:4;stroke-linecap:round;stroke-linejoin:round"
                d="m 352.26182,521.156 c 0.0111,37.6483 -30.56055,68.18146 -68.27636,68.18146 -37.71579,0 -68.28203,-30.53316 -68.27066,-68.18146 -0.0111,-37.65397 30.55487,-68.18714 68.27066,-68.18714 37.71581,0 68.28773,30.53317 68.27636,68.18714 z" />
        <path
                id="path3221"
                style="fill:#000000;fill-opacity:0.31373;stroke-width:1"
                d="m 284.07646,487.59053 c -31.46546,0.63599 -45.04168,21.20911 -45.04168,46.45561 0,11.27177 6.15704,21.62364 14.30823,29.67004 -17.36143,-7.34227 -31.05425,-21.65771 -37.55712,-39.40862 1.65397,36.16053 31.57242,65.01855 68.19673,65.01855 37.69305,0 68.27635,-30.53317 68.27635,-68.15875 0,-8.21676 -1.45039,-16.0928 -4.12365,-23.38965 0.0512,1.04485 0.091,2.10105 0.091,3.15724 0,18.47776 -7.38845,35.24063 -19.35559,47.52316 2.04761,-4.5371 3.27048,-9.38084 3.27048,-14.41197 0,-25.64968 -14.00336,-46.45561 -46.55464,-46.45561 -0.50621,0 -1.00674,-0.0111 -1.50726,0 z" />
        <path
                id="path3172"
                style="fill:#333333;stroke:#000000;stroke-width:4;stroke-linecap:round;stroke-linejoin:round"
                d="m 288.63809,589.62139 c 0,5.16174 8.34399,5.32641 18.62185,5.32641 10.27786,0 18.61618,0.39181 18.61618,-5.32641 0,-10.06226 -8.33832,-18.22791 -18.61618,-18.22791 -10.27786,0 -18.62185,8.16565 -18.62185,18.22791 z" />
        <path
                id="path3329"
                style="fill:#333333;stroke:#000000;stroke-width:4;stroke-linecap:round;stroke-linejoin:round"
                d="m 280.11207,589.62139 c 0,5.16174 -8.34399,5.32641 -18.62185,5.32641 -10.27786,0 -18.61618,0.39181 -18.61618,-5.32641 0,-10.06226 8.33832,-18.22791 18.61618,-18.22791 10.27786,0 18.62185,8.16565 18.62185,18.22791 z" />
        <path
                id="path3331"
                style="fill:#000000;fill-opacity:0.31373;fill-rule:evenodd;stroke:#000000;stroke-width:4;stroke-linejoin:round"
                d="m 249.05982,581.27591 c 0,-9.29566 5.36929,-15.01389 5.36929,-15.01389 0,0 -2.1443,7.86469 -1.78597,15.01389 z" />
        <path
                id="path6349"
                style="font-size:37.2642px;line-height:1.25;fill:#ffffff;stroke:#000000;stroke-width:1.75959"
                d="m 448.20685,719.67634 c -3.28888,1.30882 -5.45189,2.33312 -6.71969,3.37056 -1.2357,1.01117 -1.87286,2.22192 -1.82154,3.48692 0.0406,0.99976 0.56823,1.57594 1.5401,1.80151 0.97713,0.21055 2.29295,0.0456 3.88164,-0.49991 2.20435,-0.75693 3.93314,-1.89785 5.20805,-3.5052 1.29913,-1.636 1.92575,-3.46638 1.9582,-5.60893 0.0157,-0.23739 0.015,-0.74176 0.015,-0.74176 -1.36714,0.59805 -2.7209,1.16321 -4.06179,1.69681 z m 8.26358,-5.01039 c -0.0684,2.28507 -0.0704,4.5668 0.0557,6.88544 0.11312,2.08026 0.29737,3.55742 0.29737,3.55742 -1.36295,0.57748 -4.09635,1.64497 -4.09635,1.64497 -0.0993,-0.74154 -0.28305,-2.34501 -0.28305,-2.34501 -0.84807,1.37342 -1.90749,2.48374 -3.20567,3.38869 -1.29779,0.89529 -2.91634,1.63924 -4.85437,2.24686 -2.41447,0.757 -4.50626,0.97114 -6.06006,0.64133 -1.56765,-0.34691 -2.45323,-1.2107 -2.52484,-2.8291 -0.0844,-1.90825 0.89631,-3.92919 2.72981,-5.6926 1.89223,-1.81048 4.53789,-3.25661 8.18743,-4.62967 1.87474,-0.69454 5.66639,-2.29261 5.66639,-2.29261 0.0182,-0.11226 0.0208,-0.35654 0.0208,-0.35654 0.10175,-1.69024 -0.39879,-2.80642 -1.51561,-3.33929 -1.10166,-0.55366 -2.7006,-0.4784 -4.82395,0.23126 -1.35064,0.45141 -2.66936,1.03773 -3.97921,1.77985 -1.30944,0.7419 -2.58078,1.62688 -3.82811,2.66027 0.18638,-1.32585 0.60371,-4.17896 0.60371,-4.17896 1.46826,-1.00301 2.86842,-1.84426 4.21595,-2.52892 1.34931,-0.70123 2.64029,-1.24126 3.8878,-1.63233 3.36414,-1.05461 5.80365,-0.98755 7.36388,0.15805 1.56602,1.14985 2.24919,3.39484 2.14234,6.63089 z m -43.41132,-13.80639 c 0.9788,0.0371 2.92802,0.037 2.92802,0.037 0.97494,4.57205 1.40771,9.42414 1.53129,13.5293 0.13775,4.16591 -0.0327,8.00993 -0.40178,11.14651 -0.37498,3.18685 -0.96754,5.82982 -1.73985,7.8383 -0.76455,2.02078 -1.71635,3.43517 -2.86695,4.28261 -1.01595,0.0581 -3.0761,0.13883 -3.0761,0.13883 0.94354,-0.76956 1.72772,-2.09946 2.37852,-4.07358 0.65699,-1.96605 1.20292,-4.63921 1.61504,-7.96139 0.40834,-3.29165 0.6895,-7.28483 0.68527,-11.49837 0.008,-4.17531 -0.25879,-8.95714 -1.05346,-13.43921 z m -13.27917,26.4872 c 0.36082,-2.87345 0.32673,-5.55437 -0.31213,-7.67702 -0.6252,-2.14362 -1.74457,-3.37125 -3.46239,-3.60814 -1.71033,-0.23586 -3.23619,0.62421 -4.58449,2.50543 -1.31462,1.83919 -2.29053,4.48221 -2.71387,7.43866 -0.42172,2.94514 -0.089,4.87457 0.85255,6.20452 0.93625,1.29658 2.40051,1.91439 4.14035,2.05445 1.75317,0.14114 3.13212,-0.24376 4.12067,-1.2944 1.02547,-1.08607 1.60358,-2.79049 1.95931,-5.6235 z m -9.44117,-10.9724 c 1.00398,-1.68654 2.1061,-2.9248 3.3009,-3.66988 1.21035,-0.76234 2.53319,-1.05223 3.97698,-0.86713 2.41622,0.30977 4.02276,2.068 4.99283,5.19142 0.97799,3.11144 1.06695,6.82344 0.62452,10.52717 -0.43483,3.64001 -1.20133,5.70151 -2.66187,6.99312 -1.394,1.24362 -3.35666,1.64532 -5.82193,1.4971 -1.49045,-0.0896 -2.84424,-0.33974 -3.95616,-0.78077 -1.10797,-0.45001 -2.05158,-1.1261 -2.7344,-2.15939 0.008,0.8105 0.125,2.10982 0.125,2.10982 -1.10126,-0.10877 -3.32288,-0.37895 -3.32288,-0.37895 -0.17407,-1.51187 -0.10443,-3.76269 0.35403,-7.33489 0.4541,-3.53822 1.21651,-7.81832 2.04813,-12.32748 0.9581,-5.19486 1.46623,-7.85078 2.10822,-11.56859 0.50974,-2.95192 0.76525,-4.67147 0.76525,-4.67147 1.09787,0.16134 3.27847,0.41616 3.27847,0.41616 -0.85411,5.36644 -2.0987,11.72507 -3.07709,17.02376 z m -6.38311,-18.28006 c -2.12574,3.69307 -3.9862,7.67093 -5.4445,11.57273 -1.45626,3.89638 -2.57373,7.87003 -3.18847,11.52095 -0.61639,3.66069 -0.7182,6.93672 -0.13449,9.53638 0.60001,2.6088 1.88493,4.54121 4.05231,5.65984 -0.9491,-0.11408 -2.87549,-0.37264 -2.87549,-0.37264 -2.3472,-1.23551 -3.72255,-3.34543 -4.37711,-6.08025 -0.63833,-2.71229 -0.55583,-6.04353 0.0502,-9.60377 0.60315,-3.54329 1.74418,-7.39977 3.28267,-11.23869 1.53816,-3.83809 3.52524,-7.77427 5.82319,-11.443 0.93621,0.15325 1.87348,0.30287 2.81167,0.44845 z m -35.20497,17.17444 c -2.46326,-0.79348 -4.23325,-0.93722 -5.32751,-0.43905 -1.08877,0.49567 -1.81093,1.71059 -2.12732,3.53635 -0.25124,1.44981 -0.0758,2.64321 0.51597,3.63468 0.60224,0.97688 1.54244,1.62075 2.7807,1.97704 1.70259,0.48989 3.18106,0.22044 4.41393,-0.9141 1.25703,-1.15478 2.11451,-3.0466 2.60466,-5.85589 0.0622,-0.30197 0.16887,-0.96603 0.16887,-0.96603 -0.15764,-0.0505 -2.87167,-0.92256 -3.0293,-0.973 z m 6.39504,0.12399 c -0.47089,2.72392 -1.08246,6.18422 -1.48002,8.90378 -0.38699,2.64716 -0.49774,4.24461 -0.49774,4.24461 -1.03612,-0.25521 -3.12748,-0.80706 -3.12748,-0.80706 0.0847,-0.89249 0.34353,-2.98105 0.34353,-2.98105 -0.88131,1.08827 -1.86179,1.70631 -2.97501,1.96595 -1.10402,0.24673 -2.44238,0.15582 -3.96878,-0.25102 -1.92929,-0.51423 -3.44992,-1.44717 -4.42007,-2.95058 -0.96735,-1.52837 -1.24882,-3.42498 -0.82763,-5.83578 0.49271,-2.82021 1.60809,-4.88972 3.26139,-5.98163 1.67328,-1.09426 3.88858,-1.21061 6.66241,-0.3168 1.43136,0.47544 4.27168,1.37463 4.27168,1.37463 0.0322,-0.13091 0.0766,-0.44323 0.0766,-0.44323 0.36098,-2.09387 0.16844,-3.87926 -0.58246,-5.31431 -0.73746,-1.44882 -1.9553,-2.41362 -3.63879,-2.92177 -1.06922,-0.32275 -2.14011,-0.45003 -3.20724,-0.38567 -1.06768,0.0644 -2.12337,0.32402 -3.1684,0.77912 0.21193,-1.35319 0.55932,-4.04605 0.55932,-4.04605 1.20865,-0.28218 2.36646,-0.42063 3.46995,-0.41535 1.10523,-0.0103 2.16704,0.12468 3.17817,0.40896 2.73478,0.76889 4.64389,2.33891 5.66439,4.83994 1.02377,2.50903 1.13749,5.94814 0.40622,10.13331 z m -38.13376,-9.7683 c -2.50469,-0.66028 -4.31915,-0.68732 -5.41815,-0.12979 -1.10136,0.55871 -1.81441,1.80496 -2.14364,3.70529 -0.26217,1.51328 -0.10796,2.77331 0.46355,3.80975 0.58377,1.02173 1.50615,1.67488 2.74943,1.99096 1.7111,0.43502 3.2202,0.0318 4.52687,-1.2974 1.32126,-1.34195 2.25425,-3.43254 2.73843,-6.27874 0.0621,-0.30807 0.16361,-0.97098 0.16361,-0.97098 -1.02516,-0.28149 -2.05162,-0.55796 -3.0801,-0.82909 z m 6.46654,-0.11351 c -0.50978,3.18416 -0.98151,5.72174 -1.62037,9.33097 -0.52947,2.99131 -0.83502,5.01693 -0.83502,5.01693 -1.02379,-0.26011 -3.09346,-0.81141 -3.09346,-0.81141 0.17384,-1.09824 0.57636,-3.52956 0.57636,-3.52956 -0.95923,1.28839 -2.00483,2.08562 -3.15944,2.47187 -1.14799,0.3714 -2.49311,0.35803 -4.01697,-0.0126 -1.92699,-0.46869 -3.39099,-1.45393 -4.31456,-3.07097 -0.91607,-1.63917 -1.15402,-3.66952 -0.72574,-6.17017 0.49936,-2.91575 1.57265,-4.98216 3.2251,-6.13417 1.66105,-1.14751 3.92127,-1.39112 6.75627,-0.67942 1.466,0.38125 4.36364,1.1321 4.36364,1.1321 0.0286,-0.12555 0.0632,-0.42144 0.0632,-0.42144 0.29501,-1.98221 0.008,-3.5883 -0.82935,-4.84139 -0.82267,-1.26217 -2.11946,-2.07007 -3.84542,-2.45373 -1.09804,-0.24408 -2.18855,-0.31395 -3.26212,-0.21132 -1.07452,0.10272 -2.12757,0.38109 -3.16004,0.84122 0.13359,-1.20325 0.29394,-3.51605 0.29394,-3.51605 1.19998,-0.29429 2.3571,-0.45358 3.46728,-0.48466 1.11043,-0.0441 2.18894,0.041 3.22536,0.25489 2.7922,0.5763 4.85541,1.8658 6.03849,3.99967 1.19168,2.1494 1.51455,5.20446 0.85282,9.28925 z m -40.33219,-23.80256 c 0.97117,0.0583 2.87744,0.16802 2.87744,0.16802 2.12863,2.05671 3.59466,4.50001 4.42234,7.33095 0.83511,2.81679 1.00729,5.95479 0.60689,9.23002 -0.40137,3.28312 -1.3732,6.6795 -2.75318,9.90751 -1.36524,3.22214 -3.13074,6.2664 -5.0442,8.7381 -0.90236,-0.11645 -2.73442,-0.36669 -2.73442,-0.36669 1.71584,-2.46567 3.31,-5.48212 4.55396,-8.69739 1.25969,-3.2335 2.17108,-6.67183 2.56242,-10.02182 0.39265,-3.36117 0.24461,-6.47105 -0.50674,-9.21392 -0.74233,-2.75286 -2.07047,-5.09753 -3.98451,-7.07478 z m -8.62466,16.95121 c 0.30389,-2.87629 -0.0461,-5.00603 -0.98285,-6.50192 -0.91712,-1.49695 -2.30977,-2.20526 -4.06814,-2.20388 -1.76648,0.001 -3.17724,0.71164 -4.24631,2.16635 -1.06319,1.45121 -1.66979,3.49886 -1.90055,6.25742 -0.23184,2.77165 0.0221,4.99519 0.82588,6.64883 0.81408,1.63369 2.06546,2.48766 3.76796,2.58373 1.70126,0.096 3.13057,-0.60813 4.3087,-2.18919 1.18378,-1.58406 1.99187,-3.88919 2.29531,-6.76134 z m -10.76737,-7.84794 c 0.73379,-1.22625 1.62168,-2.09789 2.68888,-2.6618 1.07575,-0.57357 2.36471,-0.861 3.85404,-0.86321 2.44853,-0.004 4.52557,0.91262 5.97689,2.92603 1.4834,2.0416 2.06043,4.87247 1.63558,8.66863 -0.4237,3.78587 -1.64281,6.89128 -3.4143,9.04477 -1.77022,2.16704 -3.80531,3.07309 -6.16111,2.91265 -1.42151,-0.0968 -2.61864,-0.487 -3.58271,-1.1855 -0.95351,-0.71341 -1.69422,-1.75795 -2.22903,-3.15991 -0.11737,1.19373 -0.36096,3.4442 -0.36096,3.4442 -1.06951,-0.024 -3.23823,-0.0768 -3.23823,-0.0768 0.57691,-6.06958 1.35935,-12.71699 1.46124,-19.32492 0.0894,-5.80037 -0.39431,-9.05833 -0.39431,-9.05833 1.13463,-0.0344 3.36827,-0.10075 3.36827,-0.10075 0.32776,2.67402 0.48318,5.69923 0.39575,9.43489 z m -10.14658,-8.99009 c -1.43649,2.18486 -2.5482,4.65586 -3.31674,7.25164 -0.76965,2.59954 -1.2264,5.41194 -1.36172,8.34968 -0.13497,2.93041 0.0522,5.95776 0.5985,8.91871 0.55307,2.91509 1.49622,5.95448 2.89561,8.65314 -0.92152,0.0222 -2.79472,0.0603 -2.79472,0.0603 -1.60392,-2.73443 -2.7329,-5.77926 -3.41891,-8.64172 -0.6839,-2.90427 -0.96163,-5.82202 -0.85036,-8.63526 0.11104,-2.80709 0.61538,-5.57968 1.49987,-8.22698 0.88189,-2.63954 2.16828,-5.21669 3.82453,-7.52848 0.97512,-0.0729 1.94974,-0.13987 2.92394,-0.20102 z m -33.63877,21.80778 c -2.72625,0.64179 -4.62507,1.44756 -5.67118,2.33309 -1.05105,0.8897 -1.57525,2.08113 -1.57635,3.56213 -8.7e-4,1.18066 0.38787,2.01408 1.16436,2.50862 0.7889,0.47943 1.85554,0.5473 3.20206,0.21928 1.85613,-0.45216 3.34352,-1.43559 4.47691,-2.99696 1.14375,-1.57357 1.73807,-3.46052 1.75959,-5.64489 0.0125,-0.24104 0.007,-0.74483 0.007,-0.74483 -1.12113,0.24522 -2.24192,0.49979 -3.36239,0.76356 z m 6.76122,-2.85739 c -0.0323,3.89038 -0.21306,11.74544 -0.21306,11.74544 -1.09622,0.20938 -3.32112,0.63883 -3.32112,0.63883 0.0246,-1.02491 0.0458,-3.10971 0.0458,-3.10971 -0.78156,1.40443 -1.7412,2.52125 -2.88234,3.36632 -1.14139,0.83322 -2.53037,1.43961 -4.17576,1.84678 -2.08082,0.51493 -3.73985,0.38959 -4.97918,-0.42081 -1.22671,-0.82555 -1.84251,-2.20226 -1.84411,-4.15671 -0.002,-2.27578 0.76304,-4.21786 2.29997,-5.7938 1.54648,-1.57658 3.86269,-2.77548 6.93872,-3.52267 1.59255,-0.37698 4.7509,-1.10187 4.7509,-1.10187 0.0107,-0.10035 0.002,-0.3235 0.002,-0.3235 0.007,-1.52027 -0.50876,-2.56675 -1.5432,-3.14575 -1.01992,-0.59231 -2.46447,-0.67241 -4.3155,-0.22066 -1.17802,0.2875 -2.32391,0.71138 -3.43715,1.27249 -1.1134,0.56119 -2.18207,1.25655 -3.20654,2.0869 0.009,-1.011 -0.004,-3.04294 -0.004,-3.04294 1.23147,-0.79453 2.42838,-1.44764 3.59029,-1.96404 1.16173,-0.52812 2.29497,-0.92113 3.39878,-1.18305 2.97293,-0.70545 5.22714,-0.45745 6.70373,0.68924 1.48416,1.15257 2.22594,3.2416 2.19218,6.33951 z M 206.4418,681.80435 c 23.14233,-5.10613 47.37077,-6.29728 76.57719,-4.14734 27.94122,2.05681 57.12061,6.87634 84.11343,9.61352 28.60584,2.90074 50.19266,3.07029 70.17089,1.07106 18.35059,-1.83636 29.94342,-4.92303 29.94342,-4.92303 1.92888,-0.44824 3.52804,0.67876 3.52804,2.46578 0.011,13.85984 0,41.5652 0,41.5652 0,1.90023 -1.72547,3.80255 -3.7856,4.33954 -26.23363,6.84046 -52.52859,8.41838 -82.60259,5.50197 -28.73984,-2.78702 -57.31187,-9.2763 -83.18787,-12.94985 -27.38781,-3.88817 -47.63242,-4.10564 -66.48829,-1.3892 -17.30044,2.49236 -28.26005,6.66385 -28.26005,6.66385 -1.84581,0.61338 -3.33835,-0.32952 -3.33835,-2.16631 0.0101,-13.85085 0,-41.5652 0,-41.5652 0,-1.84903 1.48366,-3.67246 3.32978,-4.07999 z"
                inkscape:path-effect="#path-effect10324"
                inkscape:original-d="m 453.0724,708.28116 q -4.05758,0 -5.62238,0.92797 -1.56481,0.92796 -1.56481,3.166 0,1.78315 1.16451,2.83848 1.1827,1.03714 3.20239,1.03714 2.7839,0 4.45787,-1.9651 1.69218,-1.9833 1.69218,-5.25847 v -0.74602 z m 6.67771,-1.38285 v 11.62687 h -3.34795 v -3.09322 q -1.14631,1.85593 -2.85668,2.74751 -1.71037,0.87338 -4.18495,0.87338 -3.12961,0 -4.98554,-1.74676 -1.83774,-1.76496 -1.83774,-4.71261 0,-3.43894 2.29263,-5.1857 2.31081,-1.74676 6.87786,-1.74676 h 4.69442 v -0.32751 q 0,-2.31082 -1.52842,-3.5663 -1.51022,-1.27368 -4.25772,-1.27368 -1.74676,0 -3.40255,0.41849 -1.65578,0.4185 -3.18419,1.25549 v -3.09322 q 1.83773,-0.70962 3.5663,-1.05534 1.72856,-0.36391 3.36615,-0.36391 4.42148,0 6.60493,2.29263 2.18345,2.29262 2.18345,6.95064 z m -42.85019,-16.6488 h 2.91127 q 2.72931,4.29412 4.07577,8.40628 1.36465,4.11216 1.36465,8.16974 0,4.07577 -1.36465,8.20613 -1.34646,4.13036 -4.07577,8.40628 h -2.91127 q 2.41999,-4.16675 3.60269,-8.27891 1.2009,-4.13036 1.2009,-8.3335 0,-4.20314 -1.2009,-8.29711 -1.1827,-4.09396 -3.60269,-8.27891 z m -8.49726,18.10443 q 0,-3.69366 -1.52842,-5.78614 -1.51022,-2.11066 -4.16674,-2.11066 -2.65653,0 -4.18495,2.11066 -1.51022,2.09248 -1.51022,5.78614 0,3.69367 1.51022,5.80434 1.52842,2.09247 4.18495,2.09247 2.65652,0 4.16674,-2.09247 1.52842,-2.11067 1.52842,-5.80434 z m -11.39033,-7.1144 q 1.05534,-1.81954 2.65653,-2.69292 1.61939,-0.89158 3.85743,-0.89158 3.71186,0 6.02268,2.94766 2.32901,2.94766 2.32901,7.75124 0,4.80359 -2.32901,7.75125 -2.31082,2.94766 -6.02268,2.94766 -2.23804,0 -3.85743,-0.87338 -1.60119,-0.89158 -2.65653,-2.71112 v 3.05683 h -3.36615 v -28.31206 h 3.36615 z m -9.73454,-10.99003 q -2.43819,4.18495 -3.62089,8.27891 -1.1827,4.09397 -1.1827,8.29711 0,4.20314 1.1827,8.3335 1.2009,4.11216 3.62089,8.27891 h -2.91127 q -2.72931,-4.27592 -4.09396,-8.40628 -1.34646,-4.13036 -1.34646,-8.20613 0,-4.05758 1.34646,-8.16974 1.34646,-4.11216 4.09396,-8.40628 z m -33.46136,18.03165 q -4.05758,0 -5.62238,0.92797 -1.56481,0.92796 -1.56481,3.166 0,1.78315 1.16451,2.83848 1.1827,1.03714 3.20239,1.03714 2.7839,0 4.45788,-1.9651 1.69217,-1.9833 1.69217,-5.25847 v -0.74602 z m 6.67772,-1.38285 v 11.62687 h -3.34796 v -3.09322 q -1.14631,1.85593 -2.85668,2.74751 -1.71037,0.87338 -4.18494,0.87338 -3.12961,0 -4.98555,-1.74676 -1.83773,-1.76496 -1.83773,-4.71261 0,-3.43894 2.29262,-5.1857 2.31082,-1.74676 6.87786,-1.74676 h 4.69442 v -0.32751 q 0,-2.31082 -1.52841,-3.5663 -1.51022,-1.27368 -4.25773,-1.27368 -1.74676,0 -3.40254,0.41849 -1.65578,0.4185 -3.1842,1.25549 v -3.09322 q 1.83774,-0.70962 3.5663,-1.05534 1.72857,-0.36391 3.36615,-0.36391 4.42149,0 6.60494,2.29263 2.18345,2.29262 2.18345,6.95064 z m -41.35816,1.38285 q -4.05758,0 -5.62238,0.92797 -1.56481,0.92796 -1.56481,3.166 0,1.78315 1.16451,2.83848 1.1827,1.03714 3.20239,1.03714 2.7839,0 4.45787,-1.9651 1.69218,-1.9833 1.69218,-5.25847 v -0.74602 z m 6.67771,-1.38285 v 11.62687 h -3.34795 v -3.09322 q -1.14631,1.85593 -2.85668,2.74751 -1.71037,0.87338 -4.18495,0.87338 -3.12961,0 -4.98554,-1.74676 -1.83773,-1.76496 -1.83773,-4.71261 0,-3.43894 2.29262,-5.1857 2.31081,-1.74676 6.87786,-1.74676 h 4.69442 v -0.32751 q 0,-2.31082 -1.52842,-3.5663 -1.51022,-1.27368 -4.25772,-1.27368 -1.74676,0 -3.40254,0.41849 -1.65579,0.4185 -3.1842,1.25549 v -3.09322 q 1.83774,-0.70962 3.5663,-1.05534 1.72856,-0.36391 3.36615,-0.36391 4.42148,0 6.60493,2.29263 2.18345,2.29262 2.18345,6.95064 z m -42.85019,-16.6488 h 2.91127 q 2.72931,4.29412 4.07577,8.40628 1.36465,4.11216 1.36465,8.16974 0,4.07577 -1.36465,8.20613 -1.34646,4.13036 -4.07577,8.40628 h -2.91127 q 2.41999,-4.16675 3.60269,-8.27891 1.2009,-4.13036 1.2009,-8.3335 0,-4.20314 -1.2009,-8.29711 -1.1827,-4.09396 -3.60269,-8.27891 z m -8.49725,18.10443 q 0,-3.69366 -1.52842,-5.78614 -1.51022,-2.11066 -4.16675,-2.11066 -2.65653,0 -4.18494,2.11066 -1.51022,2.09248 -1.51022,5.78614 0,3.69367 1.51022,5.80434 1.52841,2.09247 4.18494,2.09247 2.65653,0 4.16675,-2.09247 1.52842,-2.11067 1.52842,-5.80434 z m -11.39033,-7.1144 q 1.05533,-1.81954 2.65653,-2.69292 1.61939,-0.89158 3.85743,-0.89158 3.71186,0 6.02268,2.94766 2.32901,2.94766 2.32901,7.75124 0,4.80359 -2.32901,7.75125 -2.31082,2.94766 -6.02268,2.94766 -2.23804,0 -3.85743,-0.87338 -1.6012,-0.89158 -2.65653,-2.71112 v 3.05683 h -3.36615 v -28.31206 h 3.36615 z m -9.73454,-10.99003 q -2.43819,4.18495 -3.62089,8.27891 -1.1827,4.09397 -1.1827,8.29711 0,4.20314 1.1827,8.3335 1.2009,4.11216 3.62089,8.27891 h -2.91127 q -2.72931,-4.27592 -4.09397,-8.40628 -1.34646,-4.13036 -1.34646,-8.20613 0,-4.05758 1.34646,-8.16974 1.34646,-4.11216 4.09397,-8.40628 z m -33.46136,18.03165 q -4.05758,0 -5.62238,0.92797 -1.56481,0.92796 -1.56481,3.166 0,1.78315 1.16451,2.83848 1.1827,1.03714 3.20239,1.03714 2.7839,0 4.45788,-1.9651 1.69217,-1.9833 1.69217,-5.25847 v -0.74602 z m 6.67771,-1.38285 v 11.62687 h -3.34795 v -3.09322 q -1.14631,1.85593 -2.85668,2.74751 -1.71037,0.87338 -4.18494,0.87338 -3.12961,0 -4.98555,-1.74676 -1.83773,-1.76496 -1.83773,-4.71261 0,-3.43894 2.29262,-5.1857 2.31082,-1.74676 6.87786,-1.74676 h 4.69442 v -0.32751 q 0,-2.31082 -1.52842,-3.5663 -1.51021,-1.27368 -4.25772,-1.27368 -1.74676,0 -3.40254,0.41849 -1.65579,0.4185 -3.1842,1.25549 v -3.09322 q 1.83774,-0.70962 3.5663,-1.05534 1.72856,-0.36391 3.36615,-0.36391 4.42149,0 6.60494,2.29263 2.18344,2.29262 2.18344,6.95064 z m -20.1302,-24.32949 h 261.03172 c 1.83679,0 3.31551,1.47872 3.31551,3.31552 v 41.5652 c 0,1.83679 -1.47872,3.31551 -3.31551,3.31551 H 206.42754 c -1.83679,0 -3.31552,-1.47872 -3.31552,-3.31551 v -41.5652 c 0,-1.8368 1.47873,-3.31552 3.31552,-3.31552 z"
                transform="matrix(0.53382447,-0.19599962,0.19632144,0.53294942,-92.764566,262.7864)"
                inkscape:transform-center-x="1.6764052"
                inkscape:transform-center-y="-2.6681338" />
        <path
                id="path3155"
                style="fill:#333333;stroke:#000000;stroke-width:4;stroke-linecap:round;stroke-linejoin:round"
                d="m 282.47251,480.10062 c -17.13734,0.34639 -28.96796,6.61542 -36.18578,16.32562 -13.69053,-1.47073 -25.06613,13.41256 -25.06613,13.41256 0,0 10.74425,5.36616 18.24077,0.87449 -1.36507,4.94595 -2.03054,10.27804 -2.03054,15.84295 0,25.65535 31.92562,46.47832 46.55463,46.47832 15.19212,0 46.54896,-20.82297 46.54896,-46.47832 0,-5.56491 -0.65978,-10.897 -2.02486,-15.84295 7.49084,4.49167 18.21802,-0.87449 18.21802,-0.87449 0,0 -11.35853,-14.87761 -25.04337,-13.41256 -7.42827,-9.99411 -19.74236,-16.32562 -37.69875,-16.32562 -0.51189,0 -1.01243,-0.0111 -1.51295,0 z" />
        <path
                id="path3174"
                style="fill:#000000;fill-opacity:0.31373;fill-rule:evenodd;stroke:#000000;stroke-width:4;stroke-linejoin:round"
                d="m 314.42089,594.60709 c 0,-9.29566 -5.36929,-15.01389 -5.36929,-15.01389 0,0 2.1443,7.86469 1.78597,15.01389 z" />
        <path
                id="path3157"
                style="fill:#ffffff;stroke:#000000;stroke-width:4;stroke-linecap:round;stroke-linejoin:round"
                d="m 281.92079,519.75342 c 0.006,7.10377 -5.76743,12.8731 -12.88855,12.8731 -7.12113,0 -12.89424,-5.76933 -12.88856,-12.8731 -0.006,-7.10945 5.76743,-12.8731 12.88856,-12.8731 7.12112,0 12.89424,5.76365 12.88855,12.8731 z" />
        <path
                id="path3159"
                style="fill:#ffffff;stroke:#000000;stroke-width:4;stroke-linecap:round;stroke-linejoin:round"
                d="m 311.91826,519.75342 c 0,7.10377 -5.77312,12.8731 -12.89425,12.8731 -7.12112,0 -12.88855,-5.76933 -12.88855,-12.8731 0,-7.10945 5.76743,-12.8731 12.88855,-12.8731 7.12113,0 12.89425,5.76365 12.89425,12.8731 z" />
        <path
                id="path3161"
                style="fill:#000000;stroke-width:1"
                d="m 300.45734,522.02482 c 0,2.36792 -1.92248,4.28724 -4.2943,4.28724 -2.3775,0 -4.29997,-1.91932 -4.29997,-4.28724 0,-2.37362 1.92247,-4.29294 4.29997,-4.29294 2.37182,0 4.2943,1.91932 4.2943,4.29294 z" />
        <path
                id="path3163"
                style="fill:#000000;stroke-width:1"
                d="m 276.55151,522.02482 c 0,2.36792 -1.92248,4.28724 -4.29428,4.28724 -2.3775,0 -4.29999,-1.91932 -4.29999,-4.28724 0,-2.37362 1.92249,-4.29294 4.29999,-4.29294 2.3718,0 4.29428,1.91932 4.29428,4.29294 z" />
        <path
                id="path3231"
                style="fill:#000000;fill-opacity:0.31373;stroke-width:1"
                d="m 328.66882,511.33224 -1.06362,1.51048 c 0.13651,1.74328 0.19339,3.52065 0.19339,5.32073 0,25.65535 -31.35684,46.47264 -46.54895,46.47264 -11.77943,0 -34.75247,-13.48638 -43.2671,-32.13449 4.33411,22.85587 32.51715,40.53296 46.00292,40.53296 15.19212,0 46.54896,-20.82297 46.54896,-46.47832 0,-5.33209 -0.60859,-10.45408 -1.8656,-15.224 z" />
        <path
                id="path2398"
                style="fill:#000000;stroke-width:1"
                d="m 293.42721,556.45341 c -1.3025,2.25436 -3.69706,3.31623 -5.34653,2.36224 -1.64377,-0.9483 -1.92248,-3.54904 -0.61997,-5.80339 1.30251,-2.25436 3.69707,-3.31624 5.34653,-2.36226 1.64378,0.94831 1.92248,3.54338 0.61997,5.80341 z" />
        <path
                id="path2412"
                style="fill:#000000;stroke-width:1"
                d="m 274.80536,556.45341 c 1.3025,2.25436 3.69706,3.31623 5.34652,2.36224 1.64378,-0.9483 1.92249,-3.54904 0.61998,-5.80339 -1.30251,-2.25436 -3.69707,-3.31624 -5.34654,-2.36226 -1.64377,0.94831 -1.92246,3.54338 -0.61996,5.80341 z" />
        <g
                id="g12200"
                transform="matrix(0.50814884,-0.25511086,0.25552973,0.50731586,-113.90671,323.08846)"
                inkscape:transform-center-x="3.4270188"
                inkscape:transform-center-y="-2.0940162"
                style="stroke-width:1.75959">
            <path
                    style="fill:none;stroke:#000000;stroke-width:1.75959px;stroke-linecap:butt;stroke-linejoin:miter;stroke-opacity:1"
                    d="m 193.95113,623.44183 c 10.18862,-7.18899 21.7103,-8.40197 33.52647,-7.94051"
                    id="path11600"
                    inkscape:transform-center-x="-1.9344781"
                    inkscape:transform-center-y="6.4159567"
                    sodipodi:nodetypes="cc" />
            <path
                    style="fill:none;stroke:#000000;stroke-width:1.75959px;stroke-linecap:butt;stroke-linejoin:miter;stroke-opacity:1"
                    d="m 192.40635,619.77156 c 10.18862,-7.18899 21.7103,-8.40197 33.52647,-7.94051"
                    id="path12171"
                    inkscape:transform-center-x="-1.9344781"
                    inkscape:transform-center-y="6.4159567"
                    sodipodi:nodetypes="cc" />
            <path
                    style="fill:none;stroke:#000000;stroke-width:1.75959px;stroke-linecap:butt;stroke-linejoin:miter;stroke-opacity:1"
                    d="m 193.98268,613.83573 c 10.18862,-7.18899 14.80196,-6.17352 26.61813,-5.71206"
                    id="path12173"
                    inkscape:transform-center-x="-1.9344781"
                    inkscape:transform-center-y="6.4159567"
                    sodipodi:nodetypes="cc" />
        </g>
        <g
                id="g12205"
                transform="matrix(0.56878,0,0,0.56784764,71.721987,210.52332)"
                style="stroke-width:1.75959">
            <path
                    style="fill:none;stroke:#000000;stroke-width:1.75959px;stroke-linecap:butt;stroke-linejoin:miter;stroke-opacity:1"
                    d="m 212.7565,680.25025 c 13.13774,-6.2533 25.44465,-8.74391 40.04389,-10.83342"
                    id="path12175"
                    inkscape:transform-center-x="1.934472"
                    inkscape:transform-center-y="-6.4159548"
                    sodipodi:nodetypes="cc" />
            <path
                    style="fill:none;stroke:#000000;stroke-width:1.75959px;stroke-linecap:butt;stroke-linejoin:miter;stroke-opacity:1"
                    d="m 214.8665,683.92051 c 12.71844,-7.18899 24.22136,-8.91061 38.36984,-11.02403"
                    id="path12177"
                    inkscape:transform-center-x="1.934472"
                    inkscape:transform-center-y="-6.4159548"
                    sodipodi:nodetypes="cc" />
            <path
                    style="fill:none;stroke:#000000;stroke-width:1.75959px;stroke-linecap:butt;stroke-linejoin:miter;stroke-opacity:1"
                    d="m 216.57981,687.04597 c 12.43071,-5.84953 21.15868,-7.92137 37.53418,-10.16278"
                    id="path12179"
                    inkscape:transform-center-x="1.934472"
                    inkscape:transform-center-y="-6.4159548"
                    sodipodi:nodetypes="cc" />
        </g>
    </g>
    <metadata
            id="metadata19">
        <rdf:RDF>
            <cc:Work>
                <dc:format>image/svg+xml</dc:format>
                <dc:type
                        rdf:resource="http://purl.org/dc/dcmitype/StillImage" />
                <cc:license
                        rdf:resource="http://creativecommons.org/publicdomain/zero/1.0/" />
                <dc:publisher>
                    <cc:Agent
                            rdf:about="http://openclipart.org/">
                        <dc:title>Openclipart</dc:title>
                    </cc:Agent>
                </dc:publisher>
                <dc:title>Cartoon sheep</dc:title>
                <dc:date>2008-07-07T20:04:15</dc:date>
                <dc:description>A very round sheep :)</dc:description>
                <dc:source>https://openclipart.org/detail/17637/cartoon-sheep-by-lemmling</dc:source>
                <dc:creator>
                    <cc:Agent>
                        <dc:title>lemmling</dc:title>
                    </cc:Agent>
                </dc:creator>
                <dc:subject>
                    <rdf:Bag>
                        <rdf:li>animal</rdf:li>
                        <rdf:li>cartoon</rdf:li>
                        <rdf:li>colour</rdf:li>
                        <rdf:li>funny</rdf:li>
                        <rdf:li>how i did it</rdf:li>
                        <rdf:li>mammal</rdf:li>
                        <rdf:li>sheep</rdf:li>
                    </rdf:Bag>
                </dc:subject>
            </cc:Work>
            <cc:License
                    rdf:about="http://creativecommons.org/licenses/publicdomain/">
                <cc:permits
                        rdf:resource="http://creativecommons.org/ns#Reproduction" />
                <cc:permits
                        rdf:resource="http://creativecommons.org/ns#Distribution" />
                <cc:permits
                        rdf:resource="http://creativecommons.org/ns#DerivativeWorks" />
            </cc:License>
        </rdf:RDF>
    </metadata>
</svg>
