<svg xmlns="http://www.w3.org/2000/svg" version="1.0" viewBox="0 0 373 281.8"><path fill="#fff" stroke="#000" stroke-linecap="round" stroke-linejoin="round" stroke-width="4" d="M371 122a120 120 0 1 1-240.1.1 120 120 0 0 1 240 0z"/><path fill-opacity=".3" d="M251 63c-55.2 1-79.1 37.3-79.1 81.8 0 19.8 10.8 38 25.1 52.2a120.5 120.5 0 0 1-66-69.4A120.1 120.1 0 1 0 363.7 81l.2 5.6c0 32.5-13 62-34 83.7 3.5-8 5.7-16.6 5.7-25.4 0-45.2-24.6-81.8-81.9-81.8h-2.6z"/><path fill="#333" stroke="#000" stroke-linecap="round" stroke-linejoin="round" stroke-width="4" d="M259.1 242.6c0 9.1 14.7 9.4 32.7 9.4 18.1 0 32.8.7 32.8-9.4a32.4 32.4 0 0 0-32.8-32c-18 0-32.7 14.3-32.7 32zm-15 0c0 9.1-14.7 9.4-32.7 9.4-18.1 0-32.8.7-32.8-9.4a32.4 32.4 0 0 1 32.8-32c18 0 32.7 14.3 32.7 32z"/><path fill-opacity=".3" fill-rule="evenodd" stroke="#000" stroke-linejoin="round" stroke-width="4" d="M189.5 228c0-16.4 9.5-26.5 9.5-26.5s-3.8 13.9-3.2 26.5z"/><path fill="#fff" stroke="#000" d="M448.2 719.7a27.5 27.5 0 0 0-6.7 3.3c-1.2 1-1.9 2.3-1.8 3.5 0 1 .5 1.6 1.5 1.8 1 .2 2.3 0 3.9-.5a11 11 0 0 0 5.2-3.5c1.3-1.6 2-3.4 2-5.6v-.7l-4 1.7zm8.3-5a81.4 81.4 0 0 0 .3 10.4l-4 1.7-.4-2.4c-.8 1.4-1.9 2.5-3.2 3.4a18 18 0 0 1-10.9 2.9c-1.5-.4-2.4-1.2-2.5-2.8 0-2 .9-4 2.7-5.7a26 26 0 0 1 8.2-4.7l5.7-2.3v-.3c.1-1.7-.4-2.8-1.5-3.4-1.1-.5-2.7-.4-4.8.3a22.5 22.5 0 0 0-7.8 4.4l.6-4.2a38.2 38.2 0 0 1 8-4.1c3.4-1 5.9-1 7.4.1 1.6 1.2 2.3 3.4 2.2 6.7zM413 700.9h2.9a78 78 0 0 1 1.1 24.7c-.4 3.2-1 5.8-1.7 7.8-.8 2-1.7 3.4-2.9 4.3l-3 .1c.9-.7 1.7-2 2.3-4a40 40 0 0 0 1.6-8 94.5 94.5 0 0 0-.3-25zm-13.3 26.4c.3-2.8.3-5.5-.3-7.6-.7-2.2-1.8-3.4-3.5-3.6-1.7-.3-3.2.6-4.6 2.5a17.3 17.3 0 0 0-2.7 7.4c-.4 3 0 4.9.9 6.2.9 1.3 2.4 2 4.1 2 1.8.2 3.1-.2 4.1-1.2 1-1.1 1.6-2.8 2-5.7zm-9.5-11c1-1.6 2.1-2.9 3.3-3.6 1.3-.8 2.6-1 4-.9 2.4.3 4 2.1 5 5.2s1 6.9.6 10.6c-.4 3.6-1.2 5.7-2.6 7-1.4 1.2-3.4 1.6-5.8 1.4a13 13 0 0 1-4-.7c-1.1-.5-2-1.2-2.7-2.2v2.1c-1 0-3.2-.4-3.2-.4-.2-1.5-.1-3.7.3-7.3l2-12.3 2.2-11.6.7-4.7 3.3.5c-.8 5.3-2 11.7-3 17zm-6.3-18.2a78.8 78.8 0 0 0-8.7 23c-.6 3.7-.7 7-.1 9.6a8 8 0 0 0 4 5.7l-2.8-.4a8.7 8.7 0 0 1-4.4-6 25 25 0 0 1 0-9.7 73 73 0 0 1 9.1-22.7l2.9.5zm-35.2 17.2c-2.5-.8-4.3-1-5.4-.5-1 .5-1.8 1.7-2.1 3.6-.3 1.4 0 2.6.5 3.6.6 1 1.6 1.6 2.8 2 1.7.5 3.2.2 4.4-1 1.3-1 2.1-3 2.6-5.8l.2-1-3-1zm6.3 0-1.4 9-.5 4.2-3.2-.8.4-3a5.2 5.2 0 0 1-3 2 8 8 0 0 1-4-.2 7.3 7.3 0 0 1-4.4-3 8 8 0 0 1-.8-5.8c.5-2.8 1.6-5 3.3-6 1.6-1 3.8-1.2 6.6-.3l4.3 1.4v-.5c.4-2 .2-3.9-.5-5.3-.8-1.4-2-2.4-3.7-3a9.1 9.1 0 0 0-6.3.5l.5-4a15 15 0 0 1 6.7 0 8 8 0 0 1 5.6 4.8c1 2.5 1.2 6 .4 10zm-38-9.7c-2.6-.6-4.4-.7-5.5-.1-1.1.6-1.8 1.8-2.1 3.7-.3 1.5-.2 2.8.4 3.8.6 1 1.5 1.7 2.8 2 1.7.4 3.2 0 4.5-1.3 1.3-1.3 2.2-3.4 2.7-6.3l.2-1-3-.8zm6.4 0-1.6 9.2-.9 5-3-.8.5-3.5c-1 1.3-2 2.1-3.2 2.5-1.1.4-2.4.3-4 0a6.8 6.8 0 0 1-4.3-3 9.2 9.2 0 0 1-.7-6.3c.5-2.9 1.6-5 3.2-6.1 1.7-1.1 4-1.4 6.8-.7l4.3 1.2.1-.5c.3-2 0-3.6-.8-4.8-.9-1.3-2.2-2-3.9-2.5a10.4 10.4 0 0 0-6.4.7l.3-3.5a16.5 16.5 0 0 1 6.7-.3c2.8.6 4.8 1.9 6 4 1.2 2.2 1.5 5.2.9 9.3zm-40.4-24 3 .2c2 2 3.5 4.5 4.3 7.3.9 2.8 1 6 .7 9.2a40 40 0 0 1-7.8 18.6c-1 0-2.8-.3-2.8-.3a42 42 0 0 0 7.1-18.7 23 23 0 0 0-.5-9.2 16 16 0 0 0-4-7zm-8.6 17c.3-3 0-5-1-6.5a4.5 4.5 0 0 0-4-2.2 5 5 0 0 0-4.3 2.1c-1 1.5-1.6 3.5-1.9 6.3-.2 2.7 0 5 .8 6.6.9 1.7 2.1 2.5 3.8 2.6 1.7.1 3.1-.6 4.3-2.2 1.2-1.6 2-3.9 2.3-6.7zm-10.7-7.9a6.9 6.9 0 0 1 2.6-2.7c1.1-.5 2.4-.8 3.9-.8a7 7 0 0 1 6 3c1.5 2 2 4.8 1.6 8.6-.4 3.8-1.6 6.9-3.4 9-1.8 2.2-3.8 3.1-6.2 3a6.8 6.8 0 0 1-3.5-1.2c-1-.8-1.7-1.8-2.3-3.2 0 1.2-.3 3.4-.3 3.4h-3.3c.6-6.1 1.4-12.8 1.5-19.4 0-5.8-.4-9-.4-9l3.4-.1c.3 2.7.4 5.7.4 9.4zm-10.2-9a27.4 27.4 0 0 0-3.3 7.3 35.2 35.2 0 0 0-.8 17.2c.6 3 1.5 6 3 8.7h-2.9a32.1 32.1 0 0 1-2.7-25.4c.8-2.7 2.1-5.3 3.8-7.6l3-.2zM220 703.6a14 14 0 0 0-5.7 2.4c-1 .9-1.6 2-1.6 3.5 0 1.2.4 2 1.2 2.5.8.5 1.8.6 3.2.3a7.6 7.6 0 0 0 4.5-3 9.5 9.5 0 0 0 1.7-5.7v-.7l-3.3.7zm6.7-2.8-.2 11.7-3.3.7V710a8.7 8.7 0 0 1-2.8 3.4c-1.2.8-2.6 1.5-4.2 1.9-2.1.5-3.8.3-5-.5-1.2-.8-1.8-2.2-1.8-4.1a8 8 0 0 1 2.3-5.8c1.5-1.6 3.8-2.8 6.9-3.5l4.7-1.1v-.4c0-1.5-.5-2.5-1.5-3.1-1-.6-2.5-.7-4.3-.2a16.1 16.1 0 0 0-6.7 3.3v-3a26.5 26.5 0 0 1 7-3.2c3-.7 5.3-.4 6.7.7 1.5 1.2 2.3 3.3 2.2 6.4zm-20.3-19c23.2-5.1 47.4-6.3 76.6-4.1 28 2 57.1 6.8 84.1 9.6 28.6 2.9 50.2 3 70.2 1 18.4-1.8 30-4.9 30-4.9 1.9-.4 3.5.7 3.5 2.5v41.5c0 2-1.8 3.9-3.8 4.4a230.4 230.4 0 0 1-82.6 5.5c-28.8-2.8-57.3-9.3-83.2-13a228.5 228.5 0 0 0-66.5-1.3 145.6 145.6 0 0 0-28.2 6.6c-1.9.6-3.4-.3-3.4-2.2V686c0-1.9 1.5-3.7 3.3-4.1z" font-size="37.3" style="line-height:1.25" transform="rotate(-20.2 -1140.6 989)"/><path fill="#333" stroke="#000" stroke-linecap="round" stroke-linejoin="round" stroke-width="4" d="M248.3 49.8c-30.2.6-51 11.6-63.7 28.7-24-2.6-44 23.7-44 23.7s18.9 9.4 32 1.5c-2.4 8.7-3.5 18-3.5 27.9 0 45.2 56.1 81.8 81.8 81.8 26.7 0 81.9-36.6 81.9-81.8 0-9.8-1.2-19.2-3.6-28 13.2 8 32-1.4 32-1.4s-20-26.2-44-23.7c-13-17.6-34.7-28.7-66.3-28.7h-2.6z"/><path fill-opacity=".3" fill-rule="evenodd" stroke="#000" stroke-linejoin="round" stroke-width="4" d="M304.4 251.4c0-16.3-9.4-26.4-9.4-26.4s3.8 13.8 3.1 26.4z"/><path fill="#fff" stroke="#000" stroke-linecap="round" stroke-linejoin="round" stroke-width="4" d="M247.3 119.6a22.7 22.7 0 1 1-45.3 0 22.7 22.7 0 0 1 45.3 0zm52.7 0a22.7 22.7 0 1 1-45.3 0 22.7 22.7 0 0 1 45.3 0z"/><path d="M279.9 123.6a7.5 7.5 0 1 1-15.1 0 7.5 7.5 0 0 1 15 0zm-42.1 0a7.5 7.5 0 1 1-15 0 7.5 7.5 0 0 1 15 0z"/><path fill-opacity=".3" d="m329.5 104.8-1.9 2.6c.2 3.1.3 6.2.3 9.4 0 45.2-55 81.8-81.8 81.8-20.7 0-61-23.7-76-56.5 7.6 40.2 57.1 71.3 80.8 71.3 26.7 0 81.9-36.6 81.9-81.8 0-9.4-1.1-18.4-3.3-26.8z"/><path d="M267.5 184.2c-2.3 4-6.5 5.9-9.4 4.2-2.9-1.7-3.4-6.3-1-10.2 2.2-4 6.4-5.9 9.3-4.2 3 1.7 3.4 6.3 1.1 10.2zm-32.7 0c2.3 4 6.5 5.9 9.4 4.2 2.9-1.7 3.4-6.3 1-10.2-2.2-4-6.4-5.9-9.3-4.2-3 1.7-3.4 6.3-1.1 10.2z"/><path fill="none" stroke="#000" d="M4.7 243.1A52 52 0 0 1 31.1 221M1.7 240.5a52 52 0 0 1 26.4-22.1M.4 234.5c6-11 10.5-12.1 21.3-17m68.8 37.8c13.1-6.3 25.4-8.7 40-10.8M92.6 259c12.7-7.2 24.2-9 38.4-11m-36.7 14c12.4-5.8 21.2-7.8 37.5-10"/></svg>